<mxfile host="app.diagrams.net" modified="2023-11-11T14:08:18.859Z" agent="Mozilla/5.0 (Windows NT 10.0; Win64; x64) AppleWebKit/537.36 (KHTML, like Gecko) Chrome/116.0.0.0 Safari/537.36" etag="R8MABhY1tBY5Hsoc_nSJ" version="22.1.0" type="device">
  <diagram name="Trang-1" id="PAZO5kGx6yP_VTVfgfWg">
    <mxGraphModel dx="1006" dy="559" grid="1" gridSize="10" guides="1" tooltips="1" connect="1" arrows="1" fold="1" page="1" pageScale="1" pageWidth="827" pageHeight="1169" math="0" shadow="0">
      <root>
        <mxCell id="0" />
        <mxCell id="1" parent="0" />
        <mxCell id="yvA-YgZrae6TIFynfRcg-1" value="Start" style="ellipse;whiteSpace=wrap;html=1;" vertex="1" parent="1">
          <mxGeometry x="200" y="40" width="120" height="70" as="geometry" />
        </mxCell>
        <mxCell id="yvA-YgZrae6TIFynfRcg-2" value="" style="endArrow=classic;html=1;rounded=0;exitX=0.5;exitY=1;exitDx=0;exitDy=0;" edge="1" parent="1" source="yvA-YgZrae6TIFynfRcg-1">
          <mxGeometry width="50" height="50" relative="1" as="geometry">
            <mxPoint x="260" y="190" as="sourcePoint" />
            <mxPoint x="260" y="150" as="targetPoint" />
          </mxGeometry>
        </mxCell>
        <mxCell id="yvA-YgZrae6TIFynfRcg-3" value="Nhập a,b" style="shape=parallelogram;perimeter=parallelogramPerimeter;whiteSpace=wrap;html=1;fixedSize=1;" vertex="1" parent="1">
          <mxGeometry x="200" y="150" width="110" height="50" as="geometry" />
        </mxCell>
        <mxCell id="yvA-YgZrae6TIFynfRcg-7" value="" style="endArrow=classic;html=1;rounded=0;exitX=0.5;exitY=1;exitDx=0;exitDy=0;entryX=0.5;entryY=0;entryDx=0;entryDy=0;" edge="1" parent="1" source="yvA-YgZrae6TIFynfRcg-3">
          <mxGeometry width="50" height="50" relative="1" as="geometry">
            <mxPoint x="310" y="230" as="sourcePoint" />
            <mxPoint x="255" y="240" as="targetPoint" />
          </mxGeometry>
        </mxCell>
        <mxCell id="yvA-YgZrae6TIFynfRcg-12" value="a=b" style="rhombus;whiteSpace=wrap;html=1;" vertex="1" parent="1">
          <mxGeometry x="215" y="240" width="80" height="80" as="geometry" />
        </mxCell>
        <mxCell id="yvA-YgZrae6TIFynfRcg-14" value="" style="endArrow=classic;html=1;rounded=0;" edge="1" parent="1" target="yvA-YgZrae6TIFynfRcg-9">
          <mxGeometry width="50" height="50" relative="1" as="geometry">
            <mxPoint x="310" y="280" as="sourcePoint" />
            <mxPoint x="360" y="280" as="targetPoint" />
          </mxGeometry>
        </mxCell>
        <mxCell id="yvA-YgZrae6TIFynfRcg-9" value="Đúng" style="text;html=1;align=center;verticalAlign=middle;resizable=0;points=[];autosize=1;strokeColor=none;fillColor=none;" vertex="1" parent="1">
          <mxGeometry x="290" y="250" width="50" height="30" as="geometry" />
        </mxCell>
        <mxCell id="yvA-YgZrae6TIFynfRcg-16" value="" style="endArrow=classic;html=1;rounded=0;entryX=0.992;entryY=1.04;entryDx=0;entryDy=0;entryPerimeter=0;" edge="1" parent="1" target="yvA-YgZrae6TIFynfRcg-9">
          <mxGeometry width="50" height="50" relative="1" as="geometry">
            <mxPoint x="295" y="280" as="sourcePoint" />
            <mxPoint x="345" y="230" as="targetPoint" />
          </mxGeometry>
        </mxCell>
        <mxCell id="yvA-YgZrae6TIFynfRcg-17" value="UCLN=a" style="rounded=1;whiteSpace=wrap;html=1;" vertex="1" parent="1">
          <mxGeometry x="340" y="250" width="100" height="60" as="geometry" />
        </mxCell>
        <mxCell id="yvA-YgZrae6TIFynfRcg-18" value="" style="endArrow=classic;html=1;rounded=0;" edge="1" parent="1">
          <mxGeometry width="50" height="50" relative="1" as="geometry">
            <mxPoint x="440" y="280" as="sourcePoint" />
            <mxPoint x="480" y="280" as="targetPoint" />
          </mxGeometry>
        </mxCell>
        <mxCell id="yvA-YgZrae6TIFynfRcg-19" value="End" style="ellipse;whiteSpace=wrap;html=1;" vertex="1" parent="1">
          <mxGeometry x="480" y="250" width="100" height="60" as="geometry" />
        </mxCell>
        <mxCell id="yvA-YgZrae6TIFynfRcg-20" value="" style="endArrow=classic;html=1;rounded=0;exitX=0.5;exitY=1;exitDx=0;exitDy=0;" edge="1" parent="1" source="yvA-YgZrae6TIFynfRcg-12">
          <mxGeometry width="50" height="50" relative="1" as="geometry">
            <mxPoint x="270" y="360" as="sourcePoint" />
            <mxPoint x="255" y="360" as="targetPoint" />
          </mxGeometry>
        </mxCell>
        <mxCell id="yvA-YgZrae6TIFynfRcg-21" value="Sai" style="text;html=1;align=center;verticalAlign=middle;resizable=0;points=[];autosize=1;strokeColor=none;fillColor=none;" vertex="1" parent="1">
          <mxGeometry x="260" y="318" width="40" height="30" as="geometry" />
        </mxCell>
        <mxCell id="yvA-YgZrae6TIFynfRcg-22" value="a&amp;gt;b" style="rhombus;whiteSpace=wrap;html=1;" vertex="1" parent="1">
          <mxGeometry x="215" y="360" width="80" height="70" as="geometry" />
        </mxCell>
        <mxCell id="yvA-YgZrae6TIFynfRcg-23" value="" style="endArrow=classic;html=1;rounded=0;" edge="1" parent="1">
          <mxGeometry width="50" height="50" relative="1" as="geometry">
            <mxPoint x="295" y="398" as="sourcePoint" />
            <mxPoint x="340" y="400" as="targetPoint" />
          </mxGeometry>
        </mxCell>
        <mxCell id="yvA-YgZrae6TIFynfRcg-24" value="Đúng" style="text;html=1;align=center;verticalAlign=middle;resizable=0;points=[];autosize=1;strokeColor=none;fillColor=none;" vertex="1" parent="1">
          <mxGeometry x="275" y="368" width="50" height="30" as="geometry" />
        </mxCell>
        <mxCell id="yvA-YgZrae6TIFynfRcg-27" value="a=a-b" style="rounded=0;whiteSpace=wrap;html=1;" vertex="1" parent="1">
          <mxGeometry x="340" y="370" width="100" height="60" as="geometry" />
        </mxCell>
        <mxCell id="yvA-YgZrae6TIFynfRcg-28" value="" style="endArrow=classic;html=1;rounded=0;exitX=0.5;exitY=1;exitDx=0;exitDy=0;" edge="1" parent="1" source="yvA-YgZrae6TIFynfRcg-22" target="yvA-YgZrae6TIFynfRcg-29">
          <mxGeometry width="50" height="50" relative="1" as="geometry">
            <mxPoint x="270" y="470" as="sourcePoint" />
            <mxPoint x="255" y="460" as="targetPoint" />
          </mxGeometry>
        </mxCell>
        <mxCell id="yvA-YgZrae6TIFynfRcg-29" value="b=b-a" style="rounded=0;whiteSpace=wrap;html=1;" vertex="1" parent="1">
          <mxGeometry x="210" y="450" width="80" height="60" as="geometry" />
        </mxCell>
        <mxCell id="yvA-YgZrae6TIFynfRcg-30" value="sai" style="text;html=1;align=center;verticalAlign=middle;resizable=0;points=[];autosize=1;strokeColor=none;fillColor=none;" vertex="1" parent="1">
          <mxGeometry x="260" y="418" width="40" height="30" as="geometry" />
        </mxCell>
        <mxCell id="yvA-YgZrae6TIFynfRcg-31" value="" style="endArrow=classic;html=1;rounded=0;exitX=0.5;exitY=1;exitDx=0;exitDy=0;" edge="1" parent="1" source="yvA-YgZrae6TIFynfRcg-29">
          <mxGeometry width="50" height="50" relative="1" as="geometry">
            <mxPoint x="275" y="570" as="sourcePoint" />
            <mxPoint x="250" y="560" as="targetPoint" />
          </mxGeometry>
        </mxCell>
        <mxCell id="yvA-YgZrae6TIFynfRcg-32" value="" style="endArrow=classic;html=1;rounded=0;exitX=0.5;exitY=1;exitDx=0;exitDy=0;" edge="1" parent="1" source="yvA-YgZrae6TIFynfRcg-27">
          <mxGeometry width="50" height="50" relative="1" as="geometry">
            <mxPoint x="390" y="505" as="sourcePoint" />
            <mxPoint x="390" y="560" as="targetPoint" />
          </mxGeometry>
        </mxCell>
        <mxCell id="yvA-YgZrae6TIFynfRcg-33" value="" style="endArrow=classic;html=1;rounded=0;" edge="1" parent="1">
          <mxGeometry width="50" height="50" relative="1" as="geometry">
            <mxPoint x="390" y="560" as="sourcePoint" />
            <mxPoint x="160" y="560" as="targetPoint" />
          </mxGeometry>
        </mxCell>
        <mxCell id="yvA-YgZrae6TIFynfRcg-34" value="" style="endArrow=classic;html=1;rounded=0;" edge="1" parent="1">
          <mxGeometry width="50" height="50" relative="1" as="geometry">
            <mxPoint x="160" y="560" as="sourcePoint" />
            <mxPoint x="160" y="240" as="targetPoint" />
          </mxGeometry>
        </mxCell>
        <mxCell id="yvA-YgZrae6TIFynfRcg-35" value="" style="endArrow=classic;html=1;rounded=0;" edge="1" parent="1">
          <mxGeometry width="50" height="50" relative="1" as="geometry">
            <mxPoint x="165" y="240" as="sourcePoint" />
            <mxPoint x="250" y="240" as="targetPoint" />
          </mxGeometry>
        </mxCell>
      </root>
    </mxGraphModel>
  </diagram>
</mxfile>
